<svg width="35" height="40" viewBox="0 0 35 40" fill="none" xmlns="http://www.w3.org/2000/svg">
<path d="M15.2381 24.7619V28.5714C12.207 28.5714 9.30015 29.7755 7.15687 31.9188C5.0136 34.062 3.80952 36.969 3.80952 40H0C0 35.9586 1.60544 32.0827 4.46313 29.225C7.32083 26.3673 11.1967 24.7619 15.2381 24.7619ZM15.2381 22.8571C8.92381 22.8571 3.80952 17.7429 3.80952 11.4286C3.80952 5.11429 8.92381 0 15.2381 0C21.5524 0 26.6667 5.11429 26.6667 11.4286C26.6667 17.7429 21.5524 22.8571 15.2381 22.8571ZM15.2381 19.0476C19.4476 19.0476 22.8571 15.6381 22.8571 11.4286C22.8571 7.21905 19.4476 3.80952 15.2381 3.80952C11.0286 3.80952 7.61905 7.21905 7.61905 11.4286C7.61905 15.6381 11.0286 19.0476 15.2381 19.0476ZM32.381 30.4762H34.2857V40H19.0476V30.4762H20.9524V28.5714C20.9524 27.0559 21.5544 25.6025 22.6261 24.5308C23.6977 23.4592 25.1511 22.8571 26.6667 22.8571C28.1822 22.8571 29.6356 23.4592 30.7073 24.5308C31.7789 25.6025 32.381 27.0559 32.381 28.5714V30.4762ZM28.5714 30.4762V28.5714C28.5714 28.0663 28.3707 27.5818 28.0135 27.2246C27.6563 26.8673 27.1718 26.6667 26.6667 26.6667C26.1615 26.6667 25.677 26.8673 25.3198 27.2246C24.9626 27.5818 24.7619 28.0663 24.7619 28.5714V30.4762H28.5714Z" fill="#225AA4"/>
</svg>
