<svg width="42" height="40" viewBox="0 0 42 40" fill="none" xmlns="http://www.w3.org/2000/svg">
<path d="M21.3904 0.355735L21.3903 0.3557C20.9687 0.214767 20.5128 0.214767 20.0912 0.3557L20.0911 0.355734L1.70135 6.49419L1.69713 6.4956L1.69712 6.49556L1.68984 6.49785L1.65582 6.50932L1.65466 6.50972C1.63737 6.51545 1.62346 6.52093 1.60415 6.52854C1.59378 6.53263 1.58184 6.53734 1.56698 6.54303L1.56631 6.54328C1.48946 6.57245 1.41442 6.60624 1.34163 6.64445C1.3308 6.65025 1.32233 6.65526 1.31044 6.66228C1.30302 6.66666 1.29428 6.67183 1.28281 6.67846L1.28204 6.67891C1.24553 6.69985 1.21313 6.71914 1.1829 6.73911L1.18082 6.74049L1.18081 6.74048C1.16425 6.75118 1.14756 6.76281 1.1268 6.77738C1.09315 6.80102 1.06039 6.82555 1.02853 6.85097L0.872662 6.65553L1.02895 6.85063C1.02021 6.85763 1.01326 6.86312 1.00714 6.86795C0.997727 6.87539 0.990306 6.88125 0.981439 6.88861C0.943675 6.92057 0.907232 6.9538 0.872097 6.98831L0.87183 6.98857C0.864807 6.99545 0.85784 7.00184 0.854051 7.00532L0.852991 7.00629C0.849288 7.0097 0.848111 7.01082 0.847803 7.01112C0.847802 7.01112 0.8478 7.01112 0.847799 7.01112C0.805547 7.05381 0.765229 7.09817 0.726829 7.14422C0.724613 7.14691 0.721759 7.15059 0.716174 7.15796L0.714535 7.16012C0.709773 7.16642 0.702668 7.17581 0.695137 7.18521M21.3904 0.355735L0.176873 7.57513C0.152099 7.63436 0.130206 7.69494 0.110618 7.75647C0.104888 7.77423 0.0999331 7.79248 0.0949965 7.81066C0.0929839 7.81807 0.0909743 7.82547 0.0889163 7.83282C0.0769248 7.8745 0.0661023 7.9165 0.0564611 7.95878M21.3904 0.355735L39.8267 6.50958C40.2357 6.64612 40.5915 6.90808 40.8436 7.25843C41.0958 7.60878 41.2315 8.02973 41.2315 8.46167C41.2315 8.89361 41.0958 9.31456 40.8436 9.66491C40.5915 10.0153 40.2357 10.2772 39.8267 10.4138L32.239 12.9464L31.9609 13.0393L32.0965 13.2992C33.476 15.9441 33.8901 18.9883 33.2672 21.9063C32.6442 24.8243 31.0234 27.4329 28.6846 29.2817L28.3665 29.5331L28.7341 29.7044C31.956 31.2057 34.6914 33.584 36.628 36.5677L36.6282 36.5681C36.9259 37.0252 37.0301 37.5821 36.9178 38.1162C36.8055 38.6504 36.486 39.1178 36.0296 39.4159C35.5732 39.7139 35.0173 39.8182 34.4842 39.7058C33.9511 39.5934 33.4844 39.2736 33.1867 38.8166M21.3904 0.355735L32.5583 13.1034M0.695137 7.18521C0.69487 7.18555 0.694603 7.18588 0.694335 7.18621L0.499507 7.02955L0.695703 7.1845C0.695514 7.18473 0.695326 7.18497 0.695137 7.18521ZM0.695137 7.18521C0.66754 7.22018 0.642179 7.25376 0.619074 7.28716L0.617863 7.28891L0.617856 7.28891C0.606002 7.30574 0.594017 7.32406 0.580533 7.34522L0.579564 7.34674L0.579558 7.34674C0.559767 7.37732 0.540806 7.40855 0.522674 7.44043L0.522171 7.44132L0.519787 7.44547C0.5061 7.46931 0.495546 7.48769 0.485843 7.50626L0.485454 7.50701C0.468714 7.53879 0.452839 7.57289 0.434674 7.61272L0.207216 7.50898L0.435064 7.61186C0.425852 7.63226 0.421167 7.64183 0.417781 7.64874C0.414372 7.6557 0.412279 7.65998 0.40821 7.66991L0.407518 7.6716L0.407511 7.6716C0.385909 7.72324 0.366491 7.77685 0.34884 7.8323L0.348543 7.83324C0.344638 7.84534 0.341913 7.85539 0.33795 7.87003C0.335722 7.87825 0.333103 7.88792 0.329662 7.90021L0.329175 7.90195L0.329168 7.90195C0.318565 7.9388 0.308986 7.97594 0.300441 8.01333M0.300441 8.01333C0.300516 8.01298 0.300592 8.01264 0.300667 8.01229L0.0564611 7.95878M0.300441 8.01333C0.300362 8.01367 0.300284 8.01402 0.300205 8.01436L0.0564611 7.95878M0.300441 8.01333C0.286439 8.07738 0.275472 8.14206 0.267578 8.20715L0.267353 8.209C0.266319 8.21698 0.265405 8.22387 0.264589 8.23003C0.262395 8.24659 0.260905 8.25784 0.259795 8.27048L0.259688 8.27168C0.253656 8.33668 0.25 8.39964 0.25 8.46167V23.8463C0.25 24.3921 0.466542 24.9155 0.851879 25.3014C1.2372 25.6873 1.75975 25.904 2.30453 25.904C2.84932 25.904 3.37186 25.6873 3.75718 25.3014C4.14252 24.9155 4.35906 24.3921 4.35906 23.8463V11.6634V11.3164L4.68822 11.4263L9.24254 12.9464L9.52063 13.0393L9.38505 13.2992C8.00551 15.9441 7.59145 18.9883 8.21439 21.9063C8.83733 24.8243 10.4581 27.4329 12.7969 29.2817L13.115 29.5332L12.7475 29.7044C9.52549 31.2056 6.78997 33.5839 4.85333 36.5678L4.85312 36.5681C4.70571 36.7944 4.60426 37.0477 4.55457 37.3133C4.50488 37.579 4.50793 37.8518 4.56355 38.1163C4.61916 38.3808 4.72625 38.6317 4.87868 38.8547C5.03111 39.0777 5.22589 39.2684 5.4519 39.416C5.6779 39.5636 5.9307 39.6651 6.19586 39.7148C6.46102 39.7646 6.73337 39.7615 6.99735 39.7059C7.26134 39.6502 7.51181 39.543 7.73446 39.3904C7.95711 39.2378 8.14758 39.0427 8.29499 38.8164M0.0564611 7.95878C0.0406562 8.03091 0.0282872 8.10375 0.0193964 8.17705L0.0107544 8.24859C0.00422492 8.31897 0 8.38994 0 8.46167V23.8463C0 24.4583 0.242798 25.0453 0.674981 25.4781C1.10716 25.9108 1.69333 26.154 2.30453 26.154C2.91573 26.154 3.5019 25.9108 3.93408 25.4781C4.36626 25.0453 4.60906 24.4583 4.60906 23.8463V11.927L4.52991 11.9005L4.60906 11.6634H4.85906V11.7468L8.92329 13.1034C8.92942 13.0916 8.93556 13.0798 8.94173 13.068L9.16339 13.1836L9.08423 13.4207L9.04865 13.4088C7.73434 16.0521 7.35243 19.0661 7.9699 21.9585C8.58561 24.8426 10.1575 27.4303 12.4257 29.3031C12.4625 29.2857 12.4994 29.2684 12.5363 29.2512L12.6419 29.4778L12.4869 29.6739C12.4546 29.6485 12.4226 29.6229 12.3906 29.5971C9.23511 31.1234 6.55524 33.4864 4.64363 36.4316C4.47831 36.6855 4.36455 36.9695 4.30883 37.2674C4.25312 37.5652 4.25654 37.8712 4.3189 38.1678C4.38126 38.4643 4.50134 38.7457 4.67229 38.9958C4.84324 39.2458 5.0617 39.4598 5.31521 39.6253C5.56871 39.7908 5.8523 39.9048 6.14977 39.9606C6.44725 40.0163 6.75278 40.0129 7.04894 39.9505C7.34509 39.888 7.62606 39.7678 7.8758 39.5966C8.12554 39.4254 8.33917 39.2067 8.50449 38.9528M1.15764 6.46205C1.16452 6.45808 1.17136 6.45404 1.1782 6.45001C1.19351 6.44098 1.20881 6.43197 1.22447 6.42359C1.30647 6.3805 1.391 6.34242 1.47759 6.30955L1.15764 6.46205ZM1.15764 6.46205C1.11943 6.48398 1.08178 6.50628 1.0451 6.53051L1.15764 6.46205ZM8.29499 38.8164C8.29495 38.8164 8.29491 38.8165 8.29487 38.8166L8.50449 38.9528M8.29499 38.8164L8.50449 38.9528M8.29499 38.8164C9.64359 36.7415 11.4882 35.0366 13.6616 33.8563C15.835 32.676 18.2683 32.0578 20.7408 32.0578C23.2132 32.0578 25.6466 32.676 27.82 33.8563C29.9934 35.0366 31.8381 36.7416 33.1867 38.8166M8.50449 38.9528C9.83042 36.9127 11.6441 35.2364 13.7809 34.076C15.9177 32.9156 18.31 32.3078 20.7408 32.3078C23.1716 32.3078 25.5639 32.9156 27.7007 34.076C29.8375 35.2364 31.6511 36.9127 32.9771 38.9528M32.5583 13.1034C32.5521 13.0916 32.546 13.0798 32.5398 13.068L32.3182 13.1836L32.3973 13.4207L32.4329 13.4088C33.7472 16.0521 34.1291 19.0661 33.5116 21.9585C32.8959 24.8426 31.324 27.4303 29.0558 29.3031C29.019 29.2857 28.9822 29.2684 28.9453 29.2512L28.8397 29.4778L28.9947 29.6739C29.0269 29.6485 29.059 29.6229 29.0909 29.5971C32.2463 31.1234 34.9262 33.4864 36.8377 36.4316C37.1716 36.9443 37.2884 37.5688 37.1625 38.1677C37.0366 38.7666 36.6782 39.2909 36.1662 39.6252C35.6543 39.9595 35.0307 40.0765 34.4326 39.9504C33.8345 39.8243 33.3109 39.4655 32.9771 38.9528M32.5583 13.1034L39.9058 10.6509C40.3647 10.4977 40.7637 10.2039 41.0465 9.81095C41.3293 9.41804 41.4815 8.94599 41.4815 8.46167C41.4815 7.97734 41.3293 7.5053 41.0465 7.11239C40.7637 6.71948 40.3647 6.42562 39.9058 6.27244L32.5583 13.1034ZM32.9771 38.9528L33.1867 38.8166M32.9771 38.9528L33.1866 38.8164C33.1866 38.8164 33.1866 38.8165 33.1867 38.8166M13.5173 14.3732L13.7022 14.4349L20.0911 16.5676L20.0912 16.5676C20.5128 16.7085 20.9687 16.7085 21.3904 16.5676L21.3904 16.5676L27.7794 14.4349L27.9641 14.3732L28.0691 14.5373C28.9657 15.9381 29.4418 17.5672 29.4407 19.231L13.5173 14.3732ZM13.5173 14.3732L13.4124 14.5374M13.5173 14.3732L13.4124 14.5374M13.4124 14.5374C12.6841 15.6772 12.2311 16.9711 12.089 18.3166C11.947 19.6621 12.1199 21.0223 12.5941 22.2893C13.0682 23.5563 13.8306 24.6953 14.8208 25.616C15.811 26.5367 17.0018 27.2138 18.2988 27.5937C19.5958 27.9735 20.9633 28.0455 22.2929 27.8041C23.6226 27.5627 24.8778 27.0145 25.959 26.2029C27.0402 25.3913 27.9178 24.3387 28.5221 23.1285C29.1264 21.9184 29.4409 20.584 29.4407 19.2311L13.4124 14.5374ZM20.8199 4.50338L20.7408 4.47696L20.6616 4.50338L9.51307 8.22453L8.8026 8.46167L9.51307 8.69881L13.4878 10.0255L13.4903 10.0263L13.4934 10.0274L13.4934 10.0274L13.4959 10.0282L20.6616 12.4201L20.7408 12.4466L20.8199 12.4201L27.9857 10.0282L27.9879 10.0275L27.9918 10.0261L27.9941 10.0254L31.9687 8.69881L32.6792 8.46167L31.9687 8.22453L20.8199 4.50338Z" fill="#225AA4" stroke="white" stroke-width="0.5"/>
</svg>
